<svg xmlns="http://www.w3.org/2000/svg" viewBox="0 -1006 4279 1280" fill="#000000">
  <g transform="scale(1,-1)">
    <path d="M608 477Q598 571 542.5 623.0Q487 675 400 675Q347 675 300.5 652.5Q254 630 219.0 588.0Q184 546 164.0 487.0Q144 428 144 354Q144 260 180.0 188.0Q216 116 277.0 76.0Q338 36 412 36Q477 36 540.0 65.5Q603 95 643 151L669 130Q626 71 576.0 39.0Q526 7 476.5 -4.5Q427 -16 386 -16Q311 -16 248.5 11.0Q186 38 140.5 86.5Q95 135 70.5 199.5Q46 264 46 339Q46 410 67.5 477.0Q89 544 132.0 598.0Q175 652 240.5 684.0Q306 716 393 716Q449 716 499.0 701.0Q549 686 595 655L590 709H644V477Z" transform="translate(0,0)"/>
    <path d="M292 -16Q222 -16 165.0 16.5Q108 49 74.5 106.5Q41 164 41 238Q41 317 74.0 380.0Q107 443 164.0 479.5Q221 516 292 516Q362 516 419.0 482.5Q476 449 510.0 392.0Q544 335 544 262Q544 185 510.5 121.5Q477 58 420.0 21.0Q363 -16 292 -16ZM300 24Q353 24 384.0 54.0Q415 84 428.5 132.0Q442 180 442 233Q442 278 433.5 321.5Q425 365 407.0 400.5Q389 436 360.5 457.0Q332 478 292 478Q240 478 207.0 448.0Q174 418 158.5 370.0Q143 322 143 267Q143 205 160.0 149.5Q177 94 212.0 59.0Q247 24 300 24Z" transform="translate(699,0)"/>
    <path d="M44 0V30Q75 30 87.0 45.5Q99 61 101.0 88.5Q103 116 103 152L104 380Q104 396 104.5 412.0Q105 428 108 445Q90 444 72.5 443.0Q55 442 37 441V483Q81 483 103.5 487.0Q126 491 137.0 497.0Q148 503 155 510H184Q185 503 185.5 494.0Q186 485 187.0 474.0Q188 463 188 449Q210 468 236.5 483.0Q263 498 292.5 507.0Q322 516 351 516Q438 516 478.0 461.5Q518 407 518 292V106Q518 86 517.5 70.5Q517 55 514 38Q530 39 545.5 39.5Q561 40 577 41V0H373V30Q404 30 416.0 45.5Q428 61 430.0 88.5Q432 116 432 152V292Q431 378 403.5 422.0Q376 466 317 465Q281 464 246.5 446.0Q212 428 189 400Q190 392 190.0 382.0Q190 372 190 361L189 106Q189 86 188.5 70.5Q188 55 185 38Q201 39 216.5 39.5Q232 40 248 41V0Z" transform="translate(1284,0)"/>
    <path d="M232 -16Q209 -16 185.0 -9.5Q161 -3 140.5 16.0Q120 35 108.0 71.5Q96 108 96 168L98 458L21 457V500Q47 501 74.0 519.5Q101 538 122.5 570.0Q144 602 152 640H186V500H354V461L186 459L184 181Q184 136 191.5 104.5Q199 73 216.0 57.0Q233 41 260 41Q288 41 312.5 57.0Q337 73 356 101L383 79Q361 46 339.5 27.0Q318 8 298.0 -1.5Q278 -11 261.0 -13.5Q244 -16 232 -16Z" transform="translate(1891,0)"/>
    <path d="M44 30Q75 30 87.0 45.5Q99 61 101.0 88.5Q103 116 103 152V380Q103 396 104.0 410.5Q105 425 107 445Q89 444 71.5 443.0Q54 442 36 441V483Q80 483 104.0 487.0Q128 491 140.5 497.0Q153 503 160 510H189V106Q189 86 188.5 70.5Q188 55 185 38Q201 39 216.5 39.5Q232 40 248 41V0H44ZM140 609Q119 609 103.0 626.0Q87 643 87 668Q87 693 103.5 710.5Q120 728 141 728Q164 728 179.5 710.5Q195 693 195 668Q195 643 178.5 626.0Q162 609 140 609Z" transform="translate(2278,0)"/>
    <path d="M44 0V30Q75 30 87.0 45.5Q99 61 101.0 88.5Q103 116 103 152L104 380Q104 396 104.5 412.0Q105 428 108 445Q90 444 72.5 443.0Q55 442 37 441V483Q81 483 103.5 487.0Q126 491 137.0 497.0Q148 503 155 510H184Q185 503 185.5 494.0Q186 485 187.0 474.0Q188 463 188 449Q210 468 236.5 483.0Q263 498 292.5 507.0Q322 516 351 516Q438 516 478.0 461.5Q518 407 518 292V106Q518 86 517.5 70.5Q517 55 514 38Q530 39 545.5 39.5Q561 40 577 41V0H373V30Q404 30 416.0 45.5Q428 61 430.0 88.5Q432 116 432 152V292Q431 378 403.5 422.0Q376 466 317 465Q281 464 246.5 446.0Q212 428 189 400Q190 392 190.0 382.0Q190 372 190 361L189 106Q189 86 188.5 70.5Q188 55 185 38Q201 39 216.5 39.5Q232 40 248 41V0Z" transform="translate(2559,0)"/>
    <path d="M255 -16Q201 -16 164.5 4.0Q128 24 109.5 72.0Q91 120 91 202V380Q91 396 91.5 412.0Q92 428 95 445Q78 444 60.5 443.5Q43 443 26 442V483H57Q100 483 119.5 491.5Q139 500 150 510H179V205Q179 119 203.5 76.5Q228 34 287 35Q325 36 359.5 58.5Q394 81 415 112V369Q415 393 416.0 410.5Q417 428 420 445Q402 444 384.0 443.5Q366 443 348 442V483H379Q422 483 441.5 491.5Q461 500 472 510H501L500 132Q500 116 499.0 87.0Q498 58 496 38Q514 39 532.0 40.0Q550 41 568 42V0H425Q422 17 420.5 32.0Q419 47 418 60Q387 29 343.0 6.5Q299 -16 255 -16Z" transform="translate(3166,0)"/>
    <path d="M348 0Q345 17 344.0 30.0Q343 43 341 57Q307 23 267.5 3.5Q228 -16 184 -16Q108 -16 71.0 18.5Q34 53 34 103Q34 149 62.5 182.5Q91 216 136.5 237.5Q182 259 235.5 269.5Q289 280 339 279V341Q339 376 333.0 407.0Q327 438 307.0 458.0Q287 478 243 479Q214 480 183.5 468.0Q153 456 139 427Q147 419 149.5 408.5Q152 398 152 389Q152 377 142.0 361.5Q132 346 107 347Q86 347 75.0 361.5Q64 376 64 396Q64 430 89.5 457.0Q115 484 160.0 500.0Q205 516 262 516Q346 516 386.0 471.5Q426 427 425 331Q425 294 425.0 256.5Q425 219 424.5 181.5Q424 144 424 106Q424 90 423.0 74.0Q422 58 420 38Q438 39 455.5 40.0Q473 41 491 42V0ZM339 245Q305 244 267.5 236.5Q230 229 198.5 214.0Q167 199 147.5 174.5Q128 150 129 115Q131 78 153.5 59.5Q176 41 207 41Q248 41 278.5 56.5Q309 72 339 100Q338 111 338.0 124.0Q338 137 338 151Q338 156 338.5 183.0Q339 210 339 245Z" transform="translate(3763,0)"/>
  </g>
</svg>