<?xml version="1.0" encoding="UTF-8" standalone="no"?>
<svg
   viewBox="0 -1006 1751.6091 454.72418"
   fill="#000000"
   version="1.1"
   id="svg8"
   xml:space="preserve"
   width="1751.6091"
   height="454.72418"
   xmlns="http://www.w3.org/2000/svg"
   xmlns:svg="http://www.w3.org/2000/svg"><defs
     id="defs8" /><path
     style="fill:#000000"
     d="m 132.36313,-552.14692 c -21.3088,-2.02967 -38.284205,-6.46245 -54.666605,-14.27507 -36.544,-17.42748 -60.5836,-47.45099 -71.5702998,-89.38546 -8.0448,-30.70583 -8.1743,-71.97928 -0.342,-108.99999 2.9911,-14.13775 9.1161998,-35.54734 12.5880998,-43.99999 0.4518,-1.1 2.4099,-5.9 4.3513,-10.66667 16.399,-40.26471 41.8069,-77.7888 74.0503,-109.36229 16.921705,-16.57009 30.283805,-27.28868 48.399105,-38.82398 40.23,-25.61736 80.6642,-38.26983 122.5235,-38.33933 30.8989,-0.051 53.8218,6.73616 67.8707,20.09658 19.8446,18.87219 18.8623,48.06113 -2.5143,74.70983 -7.6956,9.59356 -20.0699,20.28593 -28.5213,24.64468 -7.2624,3.7455 -12.5018,2.41875 -12.5018,-3.16579 0,-2.62877 0.4598,-3.47704 6.4145,-11.83306 8.692,-12.19743 13.5855,-28.53903 13.5855,-45.36869 0,-25.87202 -11.4033,-39.06981 -37.3333,-43.20842 -18.9361,-3.02232 -43.6122,0.51171 -66,9.45231 -24.7703,9.89203 -44.827,23.67677 -67.6872,46.52055 -20.1246,20.11014 -35.4847,40.54628 -49.364305,65.67761 -4.8821,8.83993 -14.9777,29.7315 -16.9133,35 -0.8083,2.2 -1.8711,4.9 -2.3619,6 -6.629,14.85787 -15.2313,46.46291 -18.599,68.33332 -1.9674,12.77623 -2.4093,16.52833 -3.0618,26 -4.0526,58.82129 9.2999,105.34796 38.1873,133.06408 21.823705,20.93876 49.794305,30.39661 83.370805,28.19057 34.534,-2.26895 64.0337,-16.10653 90.096,-42.26177 9.5236,-9.55757 15.2044,-16.3776 25.8418,-31.0243 7.6406,-10.52045 10.609,-13.80534 13.0226,-14.41111 4.5776,-1.14889 8.5591,3.01637 7.7516,8.1092 -0.6497,4.09711 -4.6739,10.94294 -13.5202,23 -10.5729,14.41032 -26.5901,31.63991 -37.4291,40.26239 -11.904,9.46969 -28.1454,19.17893 -40,23.91232 -9.1477,3.65256 -22.0513,7.69758 -28,8.77742 -11.0722,2.00988 -14.976,2.56436 -24,3.40879 -12.0412,1.12678 -21.5833,1.11722 -33.6667,-0.0337 z m 275,-38.76239 c -11.7047,-1.17708 -18.5715,-3.02754 -26.8597,-7.23814 -23.8634,-12.12322 -36.6224,-40.83434 -33.1789,-74.66101 2.4228,-23.79873 8.1321,-43.55918 19.1114,-66.1465 16.024,-32.96519 41.2754,-60.84354 67.1229,-74.10557 14.4689,-7.42387 25.1075,-10.10121 40.1377,-10.10121 19.3504,0 31.5556,4.48588 42.6666,15.68169 10.6034,10.68426 15.6322,23.10259 17.0104,42.00594 1.231,16.88487 -1.3041,38.05271 -6.9461,58 -15.8325,55.97546 -51.0193,99.73636 -90.5441,112.60748 -8.3721,2.72637 -21.9821,4.61482 -28.5202,3.95732 z m 17.2048,-14.3035 c 4.9918,-1.17864 14.7577,-6.24452 19.4353,-10.08168 26.8002,-21.985 49.039,-80.26285 54.3692,-142.47655 2.0382,-23.79051 -1.092,-38.43713 -9.9434,-46.52684 -4.675,-4.27274 -8.2241,-5.50955 -15.8099,-5.50955 -26.5805,0 -50.1969,22.27154 -70.2137,66.21534 -1.3066,2.86844 -2.3756,5.58344 -2.3756,6.03333 0,0.44989 -0.2755,1.10298 -0.6122,1.45132 -1.5324,1.58523 -9.3319,26.77368 -12.0658,38.96666 -2.9731,13.25964 -5.3027,31.69086 -5.3085,42 -0.01,9.01334 1.9043,21.76789 4.3694,29.18652 3.5037,10.54409 11.0309,18.2373 20.2838,20.73104 3.284,0.88509 14.1401,0.89141 17.8714,0.0104 z m 135.4619,14.24916 c -1.9424,-0.682 -3.3332,-2.40437 -3.3219,-4.11379 0.01,-1.57359 3.71,-17.03855 6.235,-26.06334 0.5642,-2.01667 1.7502,-6.36667 2.6356,-9.66667 0.8854,-3.3 2.4265,-9 3.4247,-12.66666 3.5584,-13.07097 5.1007,-18.78439 9.2677,-34.33334 0.9335,-3.48333 2.1407,-7.98333 2.6827,-10 4.2277,-15.73019 7.2943,-27.26395 10.4578,-39.33333 1.4897,-5.68333 3.461,-13.18333 4.3807,-16.66666 2.8875,-10.93593 7.9683,-31.28858 10.2352,-40.99999 1.1983,-5.13334 2.9307,-10.83334 3.8498,-12.66667 2.4183,-4.82374 10.811,-13.13718 18.1527,-17.98119 12.007,-7.92224 17.6993,-9.92932 20.23,-7.13298 1.9631,2.16925 1.3343,5.28177 -4.8045,23.78084 -1.6804,5.06394 -6.4247,20.83485 -7.6209,25.33332 -0.195,0.73333 -0.9952,3.69764 -1.7783,6.58736 -2.0141,7.43229 -1.5456,8.22476 1.8865,3.19092 8.2932,-12.16389 23.5913,-29.05541 34.0872,-37.63771 14.3158,-11.70581 29.8176,-19.47439 43.6071,-21.85328 5.6523,-0.9751 18.8227,-0.44309 23.1114,0.93356 11.813,3.79187 19.914,12.98344 22.9039,25.9872 2.4829,10.7985 0.6439,29.91881 -4.5966,47.79195 -0.4838,1.65 -1.3846,4.8 -2.0018,7 -1.2392,4.41734 -7.9236,25.57401 -11.3742,36 -12.211,36.89653 -17.8417,60.86655 -17.9311,76.33333 -0.05,8.58105 0.036,9.1787 1.833,12.83887 6.2948,12.81906 20.6617,9.91388 36.4828,-7.37729 4.5264,-4.94699 6.1296,-6.06973 8.7172,-6.10462 2.3546,-0.0318 3.5686,1.61166 3.4871,4.72058 -0.072,2.74005 -1.4345,4.91082 -6.856,10.92246 -15.3094,16.97564 -26.0462,23.07457 -40.7282,23.13525 -7.3969,0.0306 -12.5269,-1.05171 -18.5388,-3.91116 -8.5379,-4.06096 -14.7759,-11.70571 -17.8626,-21.89076 -1.521,-5.01902 -1.7341,-22.34236 -0.3567,-29 3.3673,-16.27591 4.0506,-19.19276 7.7301,-33 2.3139,-8.68276 8.9383,-30.48056 16.7146,-54.99999 7.8907,-24.88047 11.9435,-44.21271 11.5456,-55.07396 -0.2239,-6.11114 -0.4351,-7.04502 -2.2609,-10 -2.8256,-4.57311 -6.2963,-6.37701 -12.2691,-6.37701 -5.7622,0 -10.717,1.41804 -17.4559,4.99576 -9.2354,4.90317 -17.185,11.05553 -27.2802,21.11259 -18.5056,18.43588 -32.839,39.98608 -42.7954,64.34261 -5.1358,12.56381 -7.2415,19.334 -12.8557,41.33334 -6.1883,24.24866 -7.7634,30.26915 -10.7267,41 -1.8671,6.76102 -6.3818,19.63492 -8.0278,22.89166 -2.631,5.2054 -6.4711,8.4557 -15.238,12.89762 -9.5185,4.82272 -14.63,6.54526 -16.9771,5.72118 z m 292,0.0552 c -11.2171,-1.06203 -20.6221,-5.19915 -28.0394,-12.33407 -6.2942,-6.05465 -10.1004,-12.57851 -13.0454,-22.35998 -1.5131,-5.02536 -1.8133,-7.46476 -2.0826,-16.92491 -0.497,-17.46154 1.8502,-30.30824 14.1808,-77.6134 1.6022,-6.14688 2.44,-9.2854 5.4275,-20.33333 0.9419,-3.48333 1.9512,-7.23333 2.2428,-8.33333 1.9775,-7.4591 3.5617,-13.25701 4.645,-17 4.0541,-14.0074 9.3958,-35.55426 9.0425,-36.47495 -0.2475,-0.64498 -2.7121,-0.85838 -9.9136,-0.85838 -8.4385,0 -9.7162,-0.14575 -10.6876,-1.21916 -2.1295,-2.35304 -1.1485,-6.02455 2.6153,-9.78839 l 2.4658,-2.46585 9.8516,0.2367 c 5.4183,0.13019 10.0077,0.0808 10.1986,-0.10976 0.191,-0.19056 1.551,-4.99056 3.0224,-10.66667 6.3662,-24.55837 9.0557,-34.21589 12.5283,-44.98686 2.7167,-8.42646 3.2777,-9.82338 7.2282,-18.00006 3.2946,-6.81916 6.67,-10.58513 14.3198,-15.9766 5.614,-3.9567 16.2076,-9.64356 20.5004,-11.00498 3.2669,-1.03609 5.7744,-0.30316 6.4709,1.89143 0.5857,1.84513 -3.6256,17.80798 -8.29,31.42354 -0.7032,2.05285 -3.7329,12.13623 -9.4143,31.33333 -1.2242,4.13636 -6.533,22.98912 -8.9692,31.8515 -0.6327,2.30166 -0.9734,4.36178 -0.7572,4.57805 0.5253,0.52532 26.5661,-0.90541 32.6505,-1.79388 8.8402,-1.29088 14.945,-2.69808 20.5667,-4.74073 3.0665,-1.11424 7.168,-2.49321 9.1144,-3.06438 3.2334,-0.94883 3.6318,-0.94553 4.6157,0.0383 0.9521,0.95213 0.9713,1.40791 0.166,3.93729 -2.5306,7.94808 -9.9747,15.32312 -18.6539,18.48092 -7.1182,2.58984 -11.329,2.97844 -32.6444,3.01262 l -20.9777,0.0336 -0.788,3 c -0.4335,1.65 -1.5957,6.15 -2.5827,10 -0.987,3.85 -2.0336,7.75 -2.3258,8.66667 -0.2923,0.91667 -1.0489,3.61666 -1.6814,5.99999 -0.6326,2.38333 -1.3826,5.08333 -1.6667,6 -0.2841,0.91667 -1.0018,3.46667 -1.5949,5.66667 -0.5931,2.2 -2.1075,7.75 -3.3654,12.33333 -1.2579,4.58333 -2.9268,10.73333 -3.7087,13.66667 -0.7819,2.93333 -1.8655,6.98333 -2.4079,9 -0.5425,2.01666 -1.8744,7.11666 -2.9599,11.33333 -1.0855,4.21666 -2.2747,8.71666 -2.6426,10 -2.0375,7.10644 -8.0082,33.75951 -9.3695,41.82503 -4.6684,27.66015 -3.045,43.22779 5.3244,51.05635 3.8774,3.62686 7.0502,4.76968 13.0578,4.70334 8.7958,-0.0971 16.9315,-4.69436 28.3028,-15.9931 5.8772,-5.83966 7.2976,-6.92496 9.0633,-6.92496 2.6957,0 4.3006,1.7987 4.3006,4.81977 0,3.01753 -3.8444,8.27722 -11.1553,15.26199 -12.025,11.48866 -22.2172,16.98084 -34.5114,18.59696 -2.5666,0.33739 -4.8166,0.5747 -5,0.52734 -0.1833,-0.0474 -1.3833,-0.18552 -2.6666,-0.30703 z m 129.6666,-0.003 c -10.4047,-1.23308 -17.5698,-4.31308 -23.9772,-10.30693 -4.5834,-4.28752 -8.0139,-10.19221 -9.9987,-17.2097 -1.4798,-5.23238 -1.3435,-19.18497 0.274,-28.04566 2.7568,-15.10114 9.641,-43.47065 15.3686,-63.33334 1.0554,-3.66 2.9504,-10.6243 5.3512,-19.66666 0.2921,-1.1 1.3197,-4.85 2.2836,-8.33333 0.9639,-3.48334 2.1963,-7.98334 2.7385,-10 0.5423,-2.01667 1.4272,-5.16667 1.9664,-7 0.5393,-1.83334 2.5038,-8.58334 4.3655,-15 9.7554,-33.62197 13.3555,-38.90784 33.64447,-49.39796 9.6402,-4.98438 14.1406,-5.84172 15.9743,-3.04317 1.6432,2.50783 1.4141,3.61484 -4.6441,22.44114 -4.0217,12.49805 -6.5855,20.80016 -8.3377,26.99999 -0.3108,1.1 -1.3542,4.7 -2.3186,8 -2.0104,6.87979 -3.5967,12.44749 -4.3685,15.33333 -0.2942,1.1 -2.9348,10.55 -5.8681,21 -9.81417,34.96384 -15.96597,59.19432 -20.56487,81 -1.4947,7.08699 -1.8334,10.4286 -1.8583,18.33333 -0.028,8.85691 0.1015,9.93228 1.5449,12.83749 3.9034,7.85656 11.276,10.05458 19.74327,5.88614 4.4952,-2.213 13.0261,-9.15688 16.3858,-13.33759 5.8857,-7.32392 12.6289,-8.09198 12.6289,-1.43845 0,3.22149 -2.1724,6.25229 -10.9568,15.28631 -7.9438,8.16957 -12.856,11.99871 -19.3008,15.04526 -6.35477,3.00406 -14.51267,4.60909 -20.07577,3.9498 z m 77.99997,-0.0523 c -2.2713,-0.54528 -3,-1.57609 -3,-4.24419 0,-2.19778 2.4591,-12.66477 6.2492,-26.59909 0.5485,-2.01667 1.4767,-5.46666 2.0626,-7.66666 0.5859,-2.2 1.9443,-7.15 3.0187,-11 1.0744,-3.85 2.8709,-10.45 3.9922,-14.66667 1.1213,-4.21667 2.7668,-10.36667 3.6568,-13.66667 0.8899,-3.3 2.0974,-7.8 2.6834,-10 1.33,-4.99323 4.1425,-15.48253 5.4521,-20.33333 0.5445,-2.01667 1.549,-5.76667 2.2323,-8.33333 0.6834,-2.56667 1.7237,-6.46667 2.3118,-8.66667 7.2093,-26.96957 14.9547,-57.41963 17.2966,-67.99999 1.6136,-7.28994 3.5311,-12.84563 5.4763,-15.86673 4.1641,-6.46741 16.3694,-16.19789 27.3376,-21.79448 5.1635,-2.63468 8.6714,-2.59772 10.1827,0.10728 1.2102,2.16621 0.8514,3.77975 -4.4223,19.88727 -6.7324,20.56261 -12.6144,41.99999 -11.5239,41.99999 0.292,0 1.6757,-1.725 3.0749,-3.83334 8.2562,-12.44058 24.7833,-30.49041 35.7825,-39.07922 11.4208,-8.91798 20.7031,-14.03918 33.1365,-18.28203 6.8997,-2.35448 7.1577,-2.38908 18,-2.41429 10.4032,-0.0242 11.2446,0.0716 15.5069,1.76438 19.889,7.89905 26.5993,27.70305 20.0518,59.17783 -1.1545,5.54974 -3.9642,16.74915 -4.8504,19.33333 -0.3143,0.91667 -1.0905,3.46667 -1.7249,5.66667 -1.3939,4.83359 -4.7127,15.29627 -8.9875,28.33333 -13.5902,41.44714 -19.3292,65.2985 -19.3292,80.33249 0,9.15344 2.1201,15.11551 6.4631,18.17506 7.8949,5.56178 18.9125,0.91596 32.8866,-13.86734 4.4628,-4.72126 5.2814,-5.30688 7.4184,-5.30688 2.92,0 4.0319,1.19915 4.0319,4.34844 0,3.24717 -2.1521,6.29484 -10.6671,15.106 -8.5873,8.88597 -12.8517,12.25402 -19.4662,15.37447 -6.3921,3.01548 -10.8943,4.03542 -17.6755,4.00423 -18.0406,-0.083 -31.3983,-9.36351 -35.8856,-24.93236 -1.9694,-6.83291 -2.6239,-14.65969 -1.7875,-21.37789 1.3912,-11.17602 4.9662,-28.31263 8.3147,-39.85622 0.4787,-1.65 1.2059,-4.2 1.6162,-5.66667 1.3698,-4.89652 6.6278,-22.59648 8.4169,-28.33333 3.1128,-9.98157 5.0585,-16.19971 6.7794,-21.66666 10.628,-33.76174 14.1797,-54.15424 11.0014,-63.16605 -1.2417,-3.52079 -3.8999,-6.67791 -6.9513,-8.25584 -2.7264,-1.40985 -10.8714,-1.334 -15.3528,0.14298 -4.8349,1.59347 -14.9229,6.91537 -19.4551,10.26349 -27.0426,19.97754 -50.3205,52.80886 -63.3496,89.34875 -3.2502,9.11503 -3.2625,9.15763 -7.9329,27.33333 -10.2462,39.87549 -10.4481,40.626 -14.0623,52.267 -3.5981,11.58927 -6.7145,18.13465 -10.2834,21.59821 -2.8051,2.72226 -16.5829,10.05737 -21.3926,11.38913 -4.3396,1.20157 -4.8564,1.27684 -6.3334,0.92227 z m 295.3333,0.0644 c -9.4225,-1.06426 -15.9028,-3.06793 -22,-6.80229 -12.0954,-7.40815 -19.6966,-20.04972 -22.7197,-37.78516 -1.1818,-6.93301 -1.0361,-20.5699 0.3168,-29.65354 1.1451,-7.68851 7.337,-34.1592 9.3565,-40 0.317,-0.91667 1.0928,-3.46667 1.7241,-5.66667 1.8692,-6.5142 7.2956,-23.7114 12.306,-38.99999 1.3388,-4.08508 2.6144,-8.35803 4.2789,-14.33334 0.6129,-2.2 1.3933,-4.9 1.7344,-6 0.341,-1.1 1.4159,-6.03916 2.3886,-10.9759 2.3335,-11.84283 2.0782,-20.7478 -0.9156,-31.94177 l -2.0285,-7.58435 1.6725,-1.67255 c 1.5866,-1.58656 1.9589,-1.65468 7.2423,-1.32507 12.8192,0.79977 23.4052,10.01674 27.7556,24.16632 1.1853,3.85521 1.4248,6.23162 1.3773,13.66667 -0.053,8.35299 -0.7138,13.4611 -3.4473,26.66665 -1.2755,6.16209 -12.7873,44.39604 -16.0581,53.33333 -2.9747,8.12842 -9.0637,32.06995 -11.2751,44.33334 -6.5026,36.06026 3.1315,55.97995 25.5716,52.87229 27.5321,-3.81284 55.3299,-45.9393 74.0406,-112.20563 1.9671,-6.96666 4.5173,-16.26666 5.6671,-20.66666 1.1497,-4.4 2.3726,-8.9 2.7174,-10 0.3448,-1.1 1.389,-4.7 2.3204,-8 4.4033,-15.60019 4.1104,-14.61431 7.7251,-25.99999 5.7923,-18.24485 9.0259,-22.6654 21.9158,-29.96021 13.065,-7.39391 20.4846,-9.79327 22.8792,-7.39871 1.3804,1.38045 1.4584,5.28374 0.1832,9.16896 -3.7901,11.5471 -11.6232,36.02276 -12.7555,39.85662 -2.758,9.33794 -4.4811,15.23082 -4.971,17 -0.3045,1.1 -1.0619,3.8 -1.6831,6 -1.5314,5.42374 -2.1816,7.79373 -5.2119,19 -2.4069,8.90088 -3.4202,12.69629 -8.098,30.33333 -6.4385,24.27507 -8.1641,31.26275 -10.9481,44.33333 -4.242,19.91581 -5.0577,32.25589 -2.6218,39.66666 1.2731,3.87312 5.7318,8.08814 9.3229,8.81337 7.9837,1.61233 15.4524,-2.4209 27.6991,-14.95806 5.8247,-5.9628 6.2531,-6.26333 8.6458,-6.0645 2.969,0.24673 4.7005,2.56058 4.0012,5.34692 -0.6331,2.52264 -4.9923,8.0512 -11.8768,15.06295 -13.1562,13.39928 -22.7836,18.30813 -35.8985,18.30396 -18.8215,-0.006 -32.8059,-10.99726 -36.9558,-29.046 -1.1951,-5.19769 -1.3825,-16.88021 -0.3315,-20.66504 0.3879,-1.39686 0.6056,-2.83877 0.4837,-3.20425 -0.1218,-0.36548 -2.9919,3.4774 -6.3779,8.53974 -16.1622,24.16361 -31.8202,37.66834 -49.1519,42.39246 -3.4992,0.95379 -14.683,2.65365 -15.6491,2.37857 -0.193,-0.0549 -1.2509,-0.20155 -2.3509,-0.32579 z m 231.5402,-0.26309 c -19.656,-2.32102 -33.7091,-14.96576 -39.7975,-35.80893 -2.6642,-9.12106 -3.4444,-15.64038 -3.4419,-28.76193 0,-21.78771 3.8794,-40.46246 13.0351,-62.81801 10.9068,-26.63083 27.2399,-51.01631 47.0881,-70.30295 23.2255,-22.56849 47.4127,-34.25871 71.0243,-34.32765 10.6927,-0.0312 16.1226,1.47478 23.2678,6.45342 4.3598,3.03782 6.5567,5.55045 8.9344,10.2184 l 1.5095,2.96356 1.42,-1.94997 c 4.6713,-6.41469 14.3951,-12.52968 25.9626,-16.3271 5.1252,-1.68251 10.5365,-1.75051 11.9419,-0.15006 2.4837,2.82846 2.2977,4.0336 -2.804,18.16667 -5.5245,15.30396 -8.2913,24.11457 -14.3407,45.66665 -5.194,18.50455 -6.357,22.96054 -14.6161,56 -6.4863,25.94771 -8.7563,35.37506 -11.718,48.66667 -2.1734,9.75348 -2.9454,16.1086 -2.9559,24.33333 -0.011,8.50791 0.09,9.20985 1.8533,12.83802 2.1945,4.51651 5.1618,7.00888 9.1887,7.7182 7.0393,1.23995 13.3421,-2.12108 24.9256,-13.292 6.6239,-6.38796 8.5971,-7.93089 10.1425,-7.93089 3.089,0 4.4982,1.46737 4.4161,4.59849 -0.088,3.36674 -2.767,7.06733 -11.6506,16.0953 -13.1106,13.32368 -22.7583,18.20106 -35.9254,18.16198 -15.0891,-0.0448 -27.6572,-7.41828 -33.4955,-19.65123 -3.7838,-7.92818 -4.1744,-10.19296 -4.1412,-24.01229 0.017,-6.86092 -0.03,-12.41092 -0.1039,-12.33333 -0.074,0.0776 -2.2987,3.44108 -4.9445,7.47442 -22.4934,34.28855 -48.9222,51.36396 -74.7747,48.31123 z m 20.9917,-15.69602 c 16.063,-4.16234 33.5855,-20.50285 49.7624,-46.40575 10.285,-16.4685 23.5462,-45.93169 27.4,-60.87613 0.2836,-1.1 1.4394,-5.21386 2.5685,-9.14192 1.129,-3.92806 2.3306,-8.27806 2.6703,-9.66667 0.3396,-1.38861 1.1141,-4.32474 1.7211,-6.52474 2.3734,-8.603 7.6044,-29.62207 8.7104,-35 0.6572,-3.19545 1.1771,-8.71932 1.1922,-12.66666 0.024,-6.29022 -0.1517,-7.34665 -1.735,-10.4188 -3.4526,-6.69927 -8.8869,-10.2194 -17.9428,-11.62258 -9.9968,-1.54898 -21.3882,1.7617 -33.879,9.84628 -7.3287,4.74345 -21.3892,18.85213 -27.7667,27.86176 -21.2178,29.97519 -34.9764,64.31415 -41.0019,102.33333 -0.5791,3.65402 -0.887,11.34944 -0.8669,21.66667 0.028,14.49458 0.172,16.5018 1.5273,21.33333 2.9979,10.68717 7.141,16.4314 13.659,18.93761 4.2203,1.62272 8.6285,1.73127 13.9811,0.34427 z m -585.1985,-264.72886 c -7.0656,-1.54676 -11.6667,-7.69643 -11.6667,-15.59327 0,-11.86823 7.4913,-24.72295 17.055,-29.26547 6.8444,-3.25093 16.204,-1.65929 20.7606,3.53041 9.5696,10.89931 0.6649,35.7569 -14.572,40.67787 -3.1706,1.024 -8.5022,1.32356 -11.5769,0.65046 z"
     id="path8" /></svg>
